<svg width="14" height="13" viewBox="0 0 14 13" fill="none" xmlns="http://www.w3.org/2000/svg">
<path d="M13.96 0.84V3.492H13.144C12.4867 3.492 11.9653 3.594 11.58 3.798C11.1947 4.002 10.9113 4.35333 10.73 4.852C10.5487 5.328 10.458 5.974 10.458 6.79V9.306L9.472 7.402C9.63067 7.28867 9.85733 7.198 10.152 7.13C10.4467 7.03933 10.7527 6.994 11.07 6.994C11.818 6.994 12.4413 7.232 12.94 7.708C13.4387 8.16133 13.688 8.796 13.688 9.612C13.688 10.3827 13.45 11.04 12.974 11.584C12.498 12.1053 11.818 12.366 10.934 12.366C10.3673 12.366 9.83467 12.2413 9.336 11.992C8.86 11.72 8.47467 11.2667 8.18 10.632C7.88533 9.97467 7.738 9.07933 7.738 7.946V7.368C7.738 5.75867 7.95333 4.478 8.384 3.526C8.83733 2.574 9.48333 1.894 10.322 1.486C11.1607 1.05533 12.1807 0.84 13.382 0.84H13.96ZM6.446 0.84V3.492H5.63C4.97267 3.492 4.45133 3.594 4.066 3.798C3.68067 4.002 3.39733 4.35333 3.216 4.852C3.03467 5.328 2.944 5.974 2.944 6.79V9.306L1.958 7.402C2.11667 7.28867 2.34333 7.198 2.638 7.13C2.93267 7.03933 3.23867 6.994 3.556 6.994C4.304 6.994 4.92733 7.232 5.426 7.708C5.92467 8.16133 6.174 8.796 6.174 9.612C6.174 10.3827 5.936 11.04 5.46 11.584C4.984 12.1053 4.304 12.366 3.42 12.366C2.85333 12.366 2.32067 12.2413 1.822 11.992C1.346 11.72 0.960667 11.2667 0.666 10.632C0.371333 9.97467 0.224 9.07933 0.224 7.946V7.368C0.224 5.75867 0.439333 4.478 0.87 3.526C1.32333 2.574 1.96933 1.894 2.808 1.486C3.64667 1.05533 4.66667 0.84 5.868 0.84H6.446Z" fill="black"/>
</svg>
