<svg width="15" height="15" viewBox="0 0 15 15" fill="none" xmlns="http://www.w3.org/2000/svg">
<path d="M7.5 1.35C9.5 1.35 9.74 1.36 10.52 1.39C11.85 1.45 12.55 2.16 12.61 3.48C12.64 4.26 12.65 4.5 12.65 6.5C12.65 8.5 12.64 8.74 12.61 9.52C12.55 10.84 11.85 11.55 10.52 11.61C9.74 11.64 9.5 11.65 7.5 11.65C5.5 11.65 5.26 11.64 4.48 11.61C3.15 11.55 2.45 10.84 2.39 9.52C2.36 8.74 2.35 8.5 2.35 6.5C2.35 4.5 2.36 4.26 2.39 3.48C2.45 2.16 3.15 1.45 4.48 1.39C5.26 1.36 5.5 1.35 7.5 1.35ZM7.5 0C5.47 0 5.21 0.01 4.42 0.04C2.6 0.12 1.12 1.6 1.04 3.42C1.01 4.21 1 4.47 1 6.5C1 8.53 1.01 8.79 1.04 9.58C1.12 11.4 2.6 12.88 4.42 12.96C5.21 12.99 5.47 13 7.5 13C9.53 13 9.79 12.99 10.58 12.96C12.4 12.88 13.88 11.4 13.96 9.58C13.99 8.79 14 8.53 14 6.5C14 4.47 13.99 4.21 13.96 3.42C13.88 1.6 12.4 0.12 10.58 0.04C9.79 0.01 9.53 0 7.5 0ZM7.5 3.16C5.37 3.16 3.66 4.87 3.66 7C3.66 9.13 5.37 10.84 7.5 10.84C9.63 10.84 11.34 9.13 11.34 7C11.34 4.87 9.63 3.16 7.5 3.16ZM7.5 9.5C6.12 9.5 5 8.38 5 7C5 5.62 6.12 4.5 7.5 4.5C8.88 4.5 10 5.62 10 7C10 8.38 8.88 9.5 7.5 9.5ZM11.49 2.25C10.99 2.25 10.58 2.66 10.58 3.16C10.58 3.66 10.99 4.07 11.49 4.07C11.99 4.07 12.4 3.66 12.4 3.16C12.4 2.66 11.99 2.25 11.49 2.25Z" fill="black"/>
</svg>
